<svg width="67" height="61" viewBox="0 0 67 61" fill="none" xmlns="http://www.w3.org/2000/svg">
<path d="M64.1667 24.7964C63.8656 23.4229 63.2131 22.1515 62.2732 21.1071C62.1185 20.5912 61.9117 20.0924 61.6562 19.6184C60.9743 18.3729 59.9839 17.3242 58.7803 16.5733C57.5767 15.8224 56.2005 15.3946 54.7841 15.331C54.1734 15.3018 53.5615 15.3414 52.9597 15.4493L52.7837 15.4046C52.3206 15.301 51.8496 15.2361 51.3758 15.2104C51.0642 14.3639 50.5948 13.5845 49.9925 12.9138L46.0496 8.51479C45.7282 8.15612 45.3714 7.83084 44.9848 7.54391C44.8542 5.77515 44.0714 4.11835 42.7888 2.89598C41.5062 1.6736 39.8155 0.973106 38.0458 0.930829L30.9643 0.752281C29.889 0.725078 28.8214 0.94151 27.8413 1.38543C26.8611 1.82936 25.9937 2.48931 25.3037 3.31605C24.6136 4.14279 24.1189 5.11498 23.8563 6.16008C23.5936 7.20517 23.5699 8.29619 23.7869 9.35174L23.8827 9.82044C23.5838 10.0037 23.2993 10.2097 23.0318 10.4364L18.3694 14.3891C18.0009 14.7016 17.6651 15.0509 17.367 15.4314C16.165 15.1535 14.9157 15.1535 13.7137 15.4314L13.5377 15.476C11.562 15.1037 9.51863 15.4752 7.79945 16.5193C6.08027 17.5634 4.80634 19.2066 4.22191 21.1339C3.28374 22.1794 2.63145 23.4504 2.32844 24.8232C0.214449 27.7246 0.207733 31.9429 2.40638 36.5183C3.15708 38.0806 5.56067 42.3212 7.47641 44.8923C8.27166 45.9547 10.0092 48.7155 11.3814 50.9564V52.5923C11.3814 54.4907 12.1341 56.3113 13.4738 57.6536C14.8136 58.9959 16.6307 59.75 18.5253 59.75L47.9698 59.7188C49.8643 59.7182 51.6811 58.9639 53.0207 57.6217C54.3603 56.2795 55.1131 54.4592 55.1137 52.5611V50.9296C56.4859 48.6977 58.2324 45.9279 59.0187 44.8655C60.9345 42.3078 63.3358 38.0538 64.0888 36.4915C66.3008 31.9161 66.2807 27.6979 64.1667 24.7964Z" stroke="black" stroke-width="1.5" stroke-miterlimit="10"/>
<path d="M43.519 32.7843C43.519 32.7843 46.9651 30.3293 48.8318 26.5976C50.6986 22.8658 51.2822 21.587 52.4227 21.8481C54.53 22.328 52.6722 25.9972 52.0418 27.4122C51.2265 29.2356 49.0724 32.4496 49.0724 32.4496" stroke="black" stroke-width="1.5" stroke-linecap="round" stroke-linejoin="round"/>
<path d="M52.2312 27.1243C52.2312 27.1243 54.1091 23.5108 54.6816 22.6605C55.4479 21.5088 56.5884 21.9686 56.8825 22.5177C57.2188 23.1404 56.8357 24.4348 56.2609 25.8275C55.6862 27.2202 53.2915 32.2554 52.1911 33.7909" stroke="black" stroke-width="1.5" stroke-linecap="round" stroke-linejoin="round"/>
<path d="M56.2542 25.8298C56.2542 25.8298 57.2589 24.5822 58.3125 25.3499C59.1612 25.9682 58.9363 26.7873 58.2658 28.6598C57.5953 30.5324 55.6328 34.8957 54.2917 36.1433" stroke="black" stroke-width="1.5" stroke-linecap="round" stroke-linejoin="round"/>
<path d="M47.2057 31.6124C47.2057 31.6124 52.0641 33.5408 54.9132 37.0783" stroke="black" stroke-width="1.5" stroke-linecap="round" stroke-linejoin="round"/>
<path d="M58.121 28.9945C58.121 28.9945 58.8873 27.892 59.9409 28.7557C60.8587 29.5078 59.9409 32.3044 59.3194 33.6011C58.6979 34.8978 56.3968 38.9733 54.6749 41.2766C52.953 43.5799 48.9767 50.2041 48.9767 50.2041V54.0899H35.0385C35.0385 54.0899 34.9005 47.9075 34.9005 43.3009C34.9005 38.6943 37.4867 34.9536 39.3557 32.6526C41.2246 30.3515 41.9552 28.7088 42.6102 27.5192C43.3765 26.1288 45.388 27.0394 45.1007 28.6218C44.8133 30.2042 42.3718 35.2416 42.3718 35.2416C43.8581 36.8001 44.7288 38.8463 44.8222 40.9998" stroke="black" stroke-width="1.5" stroke-linecap="round" stroke-linejoin="round"/>
<path d="M46.9206 36.4779C46.9206 36.4779 49.2173 38.3014 49.8878 40.1248" stroke="black" stroke-width="1.5" stroke-linecap="round" stroke-linejoin="round"/>
<path d="M22.9782 32.8178C22.9782 32.8178 19.5321 30.3627 17.6632 26.6287C15.7942 22.8948 15.2128 21.6204 14.0723 21.8793C11.9672 22.3592 13.825 26.0306 14.4554 27.4456C15.2707 29.2668 17.4248 32.4808 17.4248 32.4808" stroke="black" stroke-width="1.5" stroke-linecap="round" stroke-linejoin="round"/>
<path d="M14.2639 27.1488C14.2639 27.1488 12.3882 23.5354 11.8135 22.685C11.0472 21.5334 9.90671 21.9909 9.61044 22.5399C9.2763 23.1649 9.65946 24.4594 10.2342 25.8498C10.8089 27.2403 13.2014 32.2799 14.304 33.8132" stroke="black" stroke-width="1.5" stroke-linecap="round" stroke-linejoin="round"/>
<path d="M10.2431 25.8609C10.2431 25.8609 9.23621 24.6155 8.18479 25.381C7.33384 26.0015 7.56105 26.8206 8.23156 28.6931C8.90206 30.5657 10.8645 34.929 12.2056 36.1744" stroke="black" stroke-width="1.5" stroke-linecap="round" stroke-linejoin="round"/>
<path d="M19.2983 31.6437C19.2983 31.6437 14.4399 33.5698 11.5908 37.1096" stroke="black" stroke-width="1.5" stroke-linecap="round" stroke-linejoin="round"/>
<path d="M8.38304 29.028C8.38304 29.028 7.61677 27.9255 6.56311 28.787C5.64534 29.5392 6.56312 32.3379 7.18462 33.6324C7.80612 34.9269 10.105 39.0068 11.8291 41.3079C13.5533 43.609 17.5274 50.2354 17.5274 50.2354V54.1212H31.6036V43.3233C31.6036 38.7189 29.0173 34.976 27.1484 32.6727C25.2794 30.3694 24.5466 28.729 23.8916 27.5394C23.1276 26.1467 21.116 27.0595 21.4034 28.6419C21.6907 30.2243 24.1322 35.2617 24.1322 35.2617C22.6456 36.8191 21.7747 38.8648 21.6818 41.0178" stroke="black" stroke-width="1.5" stroke-linecap="round" stroke-linejoin="round"/>
<path d="M19.579 36.5226C19.579 36.5226 17.2801 38.346 16.6096 40.1673" stroke="black" stroke-width="1.5" stroke-linecap="round" stroke-linejoin="round"/>
<path d="M37.2239 24.3254L41.2447 12.1393L45.4571 16.8396L37.2239 24.3254Z" stroke="black" stroke-width="1.5" stroke-linecap="round" stroke-linejoin="round"/>
<path d="M33.2008 18.9511L38.1817 6.57524L30.6146 6.3833L33.2008 18.9511Z" stroke="black" stroke-width="1.5" stroke-linecap="round" stroke-linejoin="round"/>
<path d="M30.5187 28.0659L27.2642 14.9224L22.2855 19.1429L30.5187 28.0659Z" stroke="black" stroke-width="1.5" stroke-linecap="round" stroke-linejoin="round"/>
</svg>
