<svg width="59" height="56" viewBox="0 0 59 56" fill="none" xmlns="http://www.w3.org/2000/svg">
<path d="M56.1851 52.1987L56.3053 52.0495C56.333 52.0105 56.3654 51.9738 56.3932 51.9348L56.5157 51.7627C56.5411 51.7306 56.5642 51.6962 56.5873 51.6618C56.6104 51.6274 56.6659 51.5402 56.7052 51.4805L56.7699 51.3773L56.8739 51.196C56.8947 51.1593 56.9178 51.1226 56.9387 51.0836C56.9595 51.0446 56.9988 50.9689 57.0265 50.9092L57.0936 50.7785C57.119 50.7257 57.1421 50.6729 57.1652 50.6202C57.1883 50.5674 57.2114 50.5169 57.2322 50.4664C57.253 50.4159 57.2715 50.3701 57.29 50.3242C57.3085 50.2783 57.3339 50.2072 57.3571 50.1475L57.3986 50.0213C57.4218 49.9548 57.4426 49.8905 57.4634 49.824C57.4842 49.7575 57.4842 49.7483 57.4958 49.7116C57.5166 49.6405 57.5351 49.5693 57.5536 49.4959C57.5536 49.4615 57.5697 49.4271 57.5766 49.3927C57.5951 49.3192 57.6113 49.2435 57.6275 49.1632C57.6275 49.1288 57.6391 49.0944 57.646 49.06C57.6599 48.9843 57.6737 48.9109 57.6853 48.8306L57.6992 48.709C57.6992 48.6401 57.7177 48.569 57.7246 48.4979C57.7315 48.4268 57.7246 48.39 57.7384 48.3373C57.7523 48.2845 57.7384 48.2226 57.75 48.1652C57.75 48.0642 57.75 47.9633 57.75 47.8623C57.75 47.8509 57.75 47.8371 57.75 47.8256V11.5564C57.7498 10.6521 57.5701 9.75658 57.221 8.9212C56.872 8.08581 56.3605 7.32689 55.7158 6.6878L51.7377 2.73922C51.6545 2.65892 51.5713 2.57861 51.4858 2.50978L51.3749 2.41571L51.2292 2.29182L51.0767 2.1725C51.0397 2.14268 51.0027 2.11285 50.9634 2.08532C50.9241 2.05779 50.8478 2.00273 50.7877 1.96143L50.6883 1.8926C50.6282 1.8513 50.5658 1.81459 50.5034 1.77558C50.441 1.73658 50.4363 1.73199 50.4017 1.71363L50.2168 1.6058L50.1058 1.54615C50.048 1.51403 49.9879 1.4842 49.9278 1.45437L49.8007 1.39243L49.6343 1.31671L49.484 1.25246L49.3361 1.19511L49.1627 1.13087L49.0309 1.08498L48.8367 1.02303L48.7189 0.990919L48.5085 0.93356L48.3976 0.908311L48.178 0.860139L48.067 0.84178C47.9931 0.828014 47.9191 0.814254 47.8359 0.805076L47.7088 0.789014L47.5007 0.76378L47.3343 0.75H47.1632C47.0707 0.75 46.976 0.75 46.8812 0.75H15.4976C13.6585 0.75 11.8946 1.47518 10.5942 2.76601C9.29368 4.05683 8.56306 5.80757 8.56306 7.63307V12.8183C8.56306 12.9973 8.56308 13.174 8.5862 13.3483C8.50237 16.2479 8.20959 19.1377 7.71012 21.9958C6.66993 27.8831 4.8115 32.5682 2.48148 35.1906C2.04379 35.6804 1.6787 36.2297 1.39733 36.8219C1.39733 36.8448 1.37656 36.8655 1.36731 36.8861C1.3049 37.0192 1.24711 37.1569 1.19163 37.2945V37.3083C1.15696 37.4001 1.12461 37.4895 1.09225 37.5836C1.09225 37.6203 1.07142 37.657 1.05986 37.6937L1.02058 37.8154C0.983596 37.9438 0.948937 38.0723 0.918887 38.2008C0.918887 38.2008 0.918887 38.2192 0.918887 38.2283C0.884214 38.3798 0.856446 38.5335 0.83102 38.6872C0.83102 38.6987 0.83102 38.7101 0.83102 38.7216C0.807904 38.8707 0.789414 39.0222 0.775545 39.1805V39.192C0.748227 39.5094 0.742805 39.8283 0.759349 40.1464C0.758356 40.1525 0.758356 40.1587 0.759349 40.1648C0.775973 40.4731 0.815377 40.7799 0.877239 41.0825C0.879976 41.1018 0.883846 41.121 0.888808 41.1399C0.945011 41.4378 1.02225 41.7314 1.11996 42.0186C1.11996 42.0484 1.1408 42.0783 1.15235 42.1104C1.2009 42.2435 1.25173 42.3742 1.30952 42.5027C1.3086 42.5103 1.3086 42.518 1.30952 42.5257C1.36731 42.6587 1.43205 42.7918 1.5014 42.9203C1.51758 42.9547 1.53606 42.9891 1.55456 43.0235C1.62159 43.1428 1.6886 43.253 1.76026 43.3792L1.77645 43.4044C1.85505 43.5283 1.93828 43.6499 2.0238 43.7692L2.08159 43.8495C2.26266 44.0909 2.4587 44.3207 2.66867 44.5378L2.69875 44.5699C3.03174 44.9137 3.40057 45.2213 3.79904 45.4877C4.05643 45.6585 4.32518 45.8118 4.60344 45.9466L4.68437 45.9856C4.80226 46.0406 4.91548 46.0934 5.04261 46.1416L5.10271 46.1668C5.21829 46.2127 5.33387 46.254 5.45638 46.2953C5.9551 46.4679 6.47399 46.5767 7.00047 46.6188C7.509 46.6716 8.1909 46.7037 9.14325 46.7083L9.15945 46.7427L9.23575 46.9056L9.30279 47.0387C9.33053 47.096 9.36055 47.1511 9.39292 47.2062C9.42528 47.2612 9.43684 47.2887 9.45996 47.3277C9.48307 47.3668 9.52698 47.4402 9.56165 47.4975C9.59633 47.5549 9.61021 47.5755 9.63564 47.6145C9.66106 47.6535 9.70497 47.7224 9.74196 47.7751L9.8252 47.8945L9.93615 48.0436L10.0355 48.1721L10.1418 48.3028C10.1811 48.351 10.2228 48.3969 10.2621 48.4428L10.3614 48.5552C10.41 48.6057 10.4585 48.6585 10.5094 48.709L10.5764 48.7801L14.5615 52.7333C15.8617 54.0242 17.6252 54.7496 19.4642 54.75H50.8085C50.9218 54.75 51.0396 54.75 51.1506 54.75H51.3101C51.3702 54.75 51.4303 54.75 51.4881 54.7362L51.6915 54.7133L51.8233 54.6949C51.8949 54.6949 51.9689 54.672 52.0405 54.6582L52.1538 54.6399L52.3734 54.5917L52.4867 54.5665L52.6947 54.5091L52.8149 54.477L53.0067 54.415L53.1408 54.3691L53.3096 54.3049L53.4621 54.2452C53.5107 54.2269 53.5592 54.2039 53.6078 54.1833L53.7788 54.1076L53.9013 54.0479L54.084 53.9539C54.1209 53.9355 54.1556 53.9148 54.1903 53.8942L54.3798 53.7864L54.4746 53.7267C54.5393 53.6877 54.6041 53.6487 54.6665 53.6051L54.7612 53.5409L54.9415 53.4147L55.0478 53.3321L55.205 53.2082L55.3484 53.0866L55.4616 52.9879C55.6327 52.8365 55.7944 52.6736 55.9493 52.5061C55.9817 52.4717 56.0118 52.435 56.0418 52.3983C56.0719 52.3616 56.1435 52.2492 56.1851 52.1987Z" stroke="black" stroke-width="1.5" stroke-miterlimit="10"/>
<path d="M50.8251 47.8326H19.4808L15.498 43.8794H46.8423L50.8251 47.8326Z" fill="black"/>
<path d="M15.4051 39.575C11.0132 39.8228 7.92269 39.8228 7.65918 39.7356C14.8966 39.8893 21.8705 38.733 27.3372 36.0646C29.5193 35.9751 31.0079 35.8857 31.0079 35.8857C31.0079 35.8857 31.9695 35.1973 32.8871 32.3294C34.0973 31.2138 35.1404 29.932 35.9846 28.5231C38.881 31.882 42.4569 34.8876 44.6967 33.9951C37.8269 37.6408 24.0918 39.0886 15.4051 39.575Z" fill="black"/>
<path d="M31.1004 11.5519C31.8651 11.5519 32.485 10.9366 32.485 10.1775C32.485 9.41853 31.8651 8.80322 31.1004 8.80322C30.3357 8.80322 29.7158 9.41853 29.7158 10.1775C29.7158 10.9366 30.3357 11.5519 31.1004 11.5519Z" fill="black"/>
<path d="M32.8937 32.3364C31.9691 35.2135 31.0145 35.8927 31.0145 35.8927C31.0145 35.8927 29.5258 35.9821 27.3438 36.0716C29.3702 35.1067 31.2407 33.8479 32.8937 32.3364Z" fill="black"/>
<path d="M15.4976 12.7862V7.60327H46.8419V12.7862V27.9106V43.8794H15.4976L15.4121 39.5728V39.5178" stroke="black" stroke-width="1.5" stroke-linecap="round" stroke-linejoin="round"/>
<path d="M46.8423 7.60327L50.8251 11.5542V16.5031V47.8325H35.1529H19.4808L15.498 43.8794" stroke="black" stroke-width="1.5" stroke-linecap="round" stroke-linejoin="round"/>
<path d="M50.8246 47.8326L46.8418 43.8794" stroke="black" stroke-width="1.5" stroke-linecap="round" stroke-linejoin="round"/>
<path d="M50.7872 16.5053L46.8414 12.7885H15.5272C15.5272 12.7885 15.6289 30.7969 7.66797 39.7357C14.9054 39.8894 21.8792 38.733 27.3459 36.0647C29.3716 35.0996 31.2412 33.8408 32.8936 32.3295C34.1037 31.2139 35.1468 29.9321 35.9911 28.5232C38.8874 31.8821 42.4633 34.8877 44.7032 33.9952C45.9907 33.4858 46.8298 31.6825 46.8298 27.906C46.8298 27.7477 46.8298 27.5871 46.8298 27.4219" stroke="black" stroke-width="1.5" stroke-linecap="round" stroke-linejoin="round"/>
<path d="M7.66602 39.7358C7.92953 39.823 11.0247 39.823 15.4119 39.5752C24.0917 39.0888 37.8337 37.6411 44.7036 34.0022L44.7683 33.9701" stroke="black" stroke-width="1.5" stroke-linecap="round" stroke-linejoin="round"/>
<path d="M27.3438 36.0716C29.5259 35.9821 31.0146 35.8926 31.0146 35.8926C31.0146 35.8926 31.9761 35.2043 32.8938 32.3364C33.1745 31.4479 33.4059 30.5448 33.5873 29.6313C34.6321 24.4483 33.7167 17.4506 33.7167 17.4506H28.1182C26.6707 20.0801 24.3597 22.1384 21.5697 23.2828C23.0721 25.8731 23.4027 27.4287 23.4027 27.4287C23.4027 27.4287 27.8408 25.6139 28.7539 23.0236C28.7539 28.3006 27.7623 30.5307 26.5788 32.6117H22.1083C22.1083 32.6117 20.8901 35.0299 19.7598 36.2391C22.4596 36.2391 25.2265 36.1542 27.3438 36.0716Z" stroke="black" stroke-width="1.5" stroke-linecap="round" stroke-linejoin="round"/>
</svg>
