<svg width="66" height="59" viewBox="0 0 66 59" fill="none" xmlns="http://www.w3.org/2000/svg">
<path d="M64.7426 21.7525C64.7061 21.1119 64.5393 20.4856 64.2526 19.9119C63.9658 19.3382 63.5651 18.8292 63.075 18.4161L59.256 15.1984C59.5403 14.6014 59.696 13.9511 59.7129 13.2899C59.7297 12.6287 59.6074 11.9713 59.3539 11.3606C59.0956 10.7382 58.7071 10.1786 58.2145 9.7195C57.722 9.26035 57.1369 8.91234 56.4986 8.69896L50.5677 6.71973C49.9466 6.51244 49.2892 6.43725 48.6374 6.49892C47.9857 6.56059 47.3539 6.75777 46.7826 7.07788C46.3713 7.30834 45.997 7.59937 45.6721 7.94121C44.5002 6.4226 43.0571 5.13475 41.4164 4.14297C37.8646 1.95073 33.2401 0.75 28.3915 0.75C23.543 0.75 18.9183 1.95639 15.3666 4.14297C11.1674 6.73671 8.7582 10.5745 8.7582 14.6725C8.7582 14.9766 8.77137 15.2782 8.79772 15.5773C8.53233 15.5603 8.26321 15.5509 7.98841 15.5584C6.59065 15.5717 5.21876 15.9381 3.99993 16.6234C2.63781 17.393 1.59918 18.6294 1.07506 20.105C0.67323 21.2808 0.643203 22.552 0.989127 23.7455C1.33505 24.9389 2.04 25.9965 3.008 26.7741C3.52115 27.1966 4.10312 27.5275 4.72836 27.7524C4.49904 28.6155 4.46884 29.5196 4.64004 30.3961C4.81125 31.2726 5.17937 32.0987 5.71652 32.8117C6.3571 33.6588 7.19795 34.3331 8.16339 34.7739C7.78084 35.4118 7.55505 36.1315 7.50462 36.8738C7.42215 38.0641 7.79362 39.2413 8.54397 40.1681C9.29433 41.0948 10.3677 41.702 11.5476 41.8671L11.6248 41.8784C11.1173 42.3298 10.5691 42.733 9.98724 43.0829C8.95798 43.6782 8.1918 44.6416 7.84265 45.7794C7.49349 46.9172 7.58724 48.1452 8.10503 49.2167C8.62462 50.2922 9.53279 51.13 10.6457 51.5604C11.7587 51.9909 12.9933 51.9818 14.0999 51.5352C16.6202 50.5211 19.9347 49.8595 20.9229 50.1648C22.3327 50.7567 23.3491 52.5154 23.5166 53.2128C23.5579 54.3346 23.9978 55.4048 24.7569 56.2307C25.516 57.0566 26.5446 57.584 27.6575 57.7179C27.845 57.7392 28.0335 57.7499 28.2222 57.75C29.273 57.7492 30.2933 57.3961 31.1206 56.747C31.9478 56.0979 32.5343 55.1902 32.7865 54.1685C32.9371 53.718 33.8725 52.259 35.4893 51.6389C37.7367 50.7774 40.4489 50.866 41.8587 51.3882C42.9151 51.7779 44.076 51.7753 45.1307 51.381C46.1854 50.9868 47.0639 50.2269 47.607 49.2393C48.1441 48.2632 48.3184 47.1281 48.0989 46.0355C47.8793 44.9429 47.2802 43.9636 46.408 43.2714C46.3478 43.0622 46.2819 42.4175 46.5473 41.2979C46.792 40.6834 48.0625 39.2545 49.1824 38.3366C49.401 38.159 49.6032 37.9622 49.7866 37.7484H49.8656C51.3712 37.7465 52.833 37.2413 54.0193 36.3128C55.2055 35.3844 56.0482 34.0858 56.4138 32.6232C56.6399 32.4539 56.8503 32.2647 57.0425 32.0577L63.4665 25.251C63.9054 24.7853 64.2449 24.2349 64.4643 23.6334C64.6837 23.0318 64.7784 22.3919 64.7426 21.7525Z" stroke="black" stroke-width="1.5" stroke-miterlimit="10"/>
<path d="M25.8863 23.7807C26.6298 23.8504 27.3921 23.8882 28.1694 23.8882C36.4135 23.8882 43.0972 19.7619 43.0972 14.6725C43.0972 9.58302 36.4135 5.45679 28.1694 5.45679C19.9253 5.45679 13.2416 9.58302 13.2416 14.6725C13.2416 18.0654 16.1948 21.0136 20.5973 22.6158C20.5973 22.6158 21.0226 27.1398 26.0218 27.7788C24.9772 25.0022 25.8863 23.7807 25.8863 23.7807Z" stroke="black" stroke-width="1.5" stroke-linecap="round" stroke-linejoin="round"/>
<path d="M18.5589 17.3341C18.5589 17.3341 24.1622 16.8949 26.9422 13.647C29.3891 10.78 25.715 9.65464 23.671 12.4199C21.6269 15.1852 23.0573 17.6413 26.8406 17.6413C30.7255 17.6413 33.8951 15.287 35.2239 13.238C36.5528 11.189 33.5883 9.75643 31.6477 12.4199C30.1024 14.5367 29.6037 18.7685 35.5326 17.2323" stroke="black" stroke-width="1.5" stroke-linecap="round" stroke-linejoin="round"/>
<path d="M48.8587 11.1909L46.6772 20.5442L50.4266 21.9768L54.7895 13.1701L48.8587 11.1909Z" fill="black" stroke="black" stroke-width="1.5" stroke-linecap="round" stroke-linejoin="round"/>
<path d="M46.7525 26.872C47.8814 26.872 48.7966 25.9555 48.7966 24.8249C48.7966 23.6943 47.8814 22.7778 46.7525 22.7778C45.6236 22.7778 44.7084 23.6943 44.7084 24.8249C44.7084 25.9555 45.6236 26.872 46.7525 26.872Z" fill="black" stroke="black" stroke-width="1.5" stroke-linecap="round" stroke-linejoin="round"/>
<path d="M49.6417 33.034C50.7706 33.034 51.6858 32.1175 51.6858 30.9869C51.6858 29.8563 50.7706 28.9398 49.6417 28.9398C48.5128 28.9398 47.5976 29.8563 47.5976 30.9869C47.5976 32.1175 48.5128 33.034 49.6417 33.034Z" fill="black" stroke="black" stroke-width="1.5" stroke-linecap="round" stroke-linejoin="round"/>
<path d="M50.6411 26.8456L53.3986 28.8286L59.8244 22.0219L55.8379 18.6628L50.6411 26.8456Z" fill="black" stroke="black" stroke-width="1.5" stroke-linecap="round" stroke-linejoin="round"/>
<path d="M13.5465 23.6827C13.5465 23.6827 11.0997 20.1861 7.88861 20.269C5.29869 20.3388 4.61734 22.1804 5.77489 23.1361C6.93245 24.0918 11.2992 22.7949 13.5465 23.6827Z" stroke="black" stroke-width="1.5" stroke-linecap="round" stroke-linejoin="round"/>
<path d="M16.0028 26.7552C16.0028 26.7552 11.2974 25.7995 9.59395 27.9164C7.89055 30.0332 10.3469 31.1925 11.9806 30.5101C13.6144 29.8277 14.5027 27.5054 16.0028 26.7552Z" stroke="black" stroke-width="1.5" stroke-linecap="round" stroke-linejoin="round"/>
<path d="M17.4333 30.3046C17.4333 30.3046 21.3182 33.9238 25.0675 32.8305C28.8169 31.7372 31.7475 27.5732 31.7475 27.5732C31.7475 27.5732 31.4068 30.51 35.2239 30.8512C39.041 31.1924 41.3599 28.1877 41.3599 28.1877C41.3599 28.1877 39.7243 31.1245 40.8819 32.9662C42.0394 34.8078 45.994 34.674 45.994 34.674C45.994 34.674 42.382 37.6089 41.7684 40.1404C41.1548 42.672 41.2225 45.3976 43.2741 46.9678C40.6842 46.0121 36.7974 46.0122 33.5939 47.2412C30.3904 48.4702 28.4141 51.3372 28.0056 53.0431C28.0056 51.1996 25.9597 47.2411 22.4833 45.8067C19.0068 44.3722 12.1218 47.1714 12.1218 47.1714C12.1218 47.1714 16.4169 44.7209 16.622 42.1197C16.8272 39.5184 14.9168 37.6146 11.9862 37.2055C15.5981 37.2055 17.6441 37.3412 18.8713 35.9087C20.0985 34.4761 17.4333 30.3046 17.4333 30.3046Z" stroke="black" stroke-width="1.5" stroke-linecap="round" stroke-linejoin="round"/>
</svg>
