<svg width="54" height="61" viewBox="0 0 54 61" fill="none" xmlns="http://www.w3.org/2000/svg">
<path d="M16.2715 47.9736C16.3416 47.7574 16.4825 47.5726 16.6704 47.4503C16.8583 47.3279 17.0818 47.2756 17.3031 47.302C17.5244 47.3284 17.73 47.432 17.8853 47.5953C18.0405 47.7586 18.1359 47.9716 18.1553 48.1984C18.2389 49.1586 18.4216 50.0199 18.7539 50.6473C21.0932 55.075 25.9369 56.7435 29.5988 57.3619L41.0907 59.3858C41.4614 59.4509 41.8368 59.484 42.213 59.4847C43.2628 59.4845 44.2974 59.2285 45.231 58.7379C46.1646 58.2474 46.9702 57.5364 47.5811 56.664C48.1919 55.7916 48.5904 54.7829 48.7434 53.7217C48.8963 52.6604 48.7994 51.5772 48.4607 50.5618L46.161 43.674L50.4017 38.9293C51.0752 38.1896 51.581 37.3076 51.8834 36.3457C52.1858 35.3838 52.2772 34.3658 52.1512 33.3637C51.9664 31.9953 51.3749 30.7179 50.4567 29.7041C49.5385 28.6902 48.3379 27.9889 47.0171 27.6947L43.2231 26.8492C43.7084 25.271 43.873 23.6082 43.7069 21.9626C43.5407 20.3171 43.0472 18.7237 42.2567 17.28C41.4662 15.8363 40.3954 14.573 39.1099 13.5674C37.8245 12.5617 36.3515 11.8351 34.7814 11.4321L31.5244 10.5956C31.4389 9.06627 31.0167 7.57643 30.2892 6.23714C29.5617 4.89785 28.5477 3.74367 27.3227 2.86069C26.0978 1.97771 24.6936 1.38872 23.2148 1.13764C21.736 0.886551 20.2208 0.979847 18.7823 1.41058C17.3437 1.84132 16.0189 2.59839 14.9066 3.6253C13.7943 4.6522 12.9233 5.92245 12.3584 7.34133C11.7936 8.76021 11.5495 10.2911 11.6445 11.8198C11.7394 13.3485 12.1709 14.8356 12.9067 16.1701L1.3862 49.0822C1.0295 50.1005 0.91762 51.1915 1.06002 52.2632C1.20242 53.3349 1.59492 54.356 2.20441 55.2402C2.8139 56.1245 3.6225 56.846 4.56207 57.344C5.50164 57.842 6.54463 58.1019 7.60309 58.1017C10.3121 58.1017 13.4811 56.3815 14.4472 53.6246L16.2715 47.9736Z" stroke="black" stroke-width="2" stroke-miterlimit="10"/>
<path d="M28.7087 34.2717C30.4685 35.1825 31.4967 37.2089 30.9968 39.0354L30.8415 39.4915C30.5554 40.1739 30.2075 40.4867 29.863 40.6653C29.4721 40.8678 28.9931 40.949 28.3444 41.0081C27.8921 41.0493 27.3148 41.0712 26.7087 41.1897C27.0633 40.0539 27.442 38.7667 27.7829 37.5774C28.1168 36.4124 28.4208 35.3208 28.6413 34.5208C28.6651 34.4344 28.6869 34.351 28.7087 34.2717Z" fill="black" stroke="black" stroke-width="2"/>
<path d="M20.9083 14.5208C21.1307 14.5669 21.357 14.5903 21.5839 14.5905C22.4267 14.5901 23.2385 14.2655 23.8577 13.6812C24.4769 13.0969 24.8581 12.2958 24.9255 11.4373C24.9928 10.5788 24.7414 9.72593 24.2212 9.04831C23.701 8.37069 22.9502 7.91805 22.1182 7.78047C21.2862 7.64289 20.4339 7.83045 19.7311 8.30584C19.0283 8.78123 18.5265 9.50958 18.3254 10.346C18.1243 11.1823 18.2388 12.0654 18.646 12.8194C19.0533 13.5734 19.7235 14.1431 20.5232 14.4151C20.6493 14.4585 20.7779 14.4938 20.9083 14.5208V14.5208Z" stroke="black" stroke-width="2" stroke-linecap="round" stroke-linejoin="round"/>
<path d="M20.7142 14.7634L20.8396 14.7949L33.1634 17.9656C33.8663 18.1452 34.5255 18.4706 35.1 18.9217C35.6746 19.3728 36.1521 19.9398 36.503 20.5875C36.8539 21.2352 37.0707 21.9498 37.1398 22.6868C37.2088 23.4237 37.1287 24.1674 36.9045 24.8714L34.5301 31.7996L31.9552 39.3193L31.7748 39.8477" stroke="black" stroke-width="2" stroke-linecap="round" stroke-linejoin="round"/>
<path d="M7.60358 51.3543L15.2113 29.6138L20.4643 14.5924" stroke="black" stroke-width="2" stroke-linecap="round" stroke-linejoin="round"/>
<path d="M24.5653 44.0109C24.7163 43.8335 24.8295 43.626 24.8976 43.4015C25.8461 41.0718 28.0336 32.9495 28.0336 32.9495" stroke="black" stroke-width="2" stroke-linecap="round" stroke-linejoin="round"/>
<path d="M34.5895 31.8188L45.6193 34.2743L38.6586 42.0639L42.2215 52.7295L30.7053 50.7057C25.1553 49.7747 23.2495 47.065 24.5743 44.018C24.666 43.8046 24.7772 43.6006 24.9066 43.4086C26.6429 40.8428 30.3092 43.4311 31.7836 39.8601C31.8549 39.6881 31.9152 39.5116 31.9641 39.3317C32.7299 36.595 30.8286 33.6717 28.0425 32.9566L15.5845 29.7522" stroke="black" stroke-width="2" stroke-linecap="round" stroke-linejoin="round"/>
</svg>
