<svg width="62" height="63" viewBox="0 0 62 63" fill="none" xmlns="http://www.w3.org/2000/svg">
<path d="M59.7254 41.6566L56.5077 36.1501C57.6519 35.4124 58.5741 34.3785 59.1756 33.1587C59.7772 31.9389 60.0356 30.579 59.9234 29.2241C59.8111 27.8692 59.3324 26.5701 58.5382 25.4655C57.7441 24.3608 56.6644 23.4921 55.4142 22.952L52.9765 21.8982C52.9765 21.8707 52.9765 21.8432 52.9639 21.8181C52.7563 20.6301 52.265 19.5094 51.5316 18.5509C50.7982 17.5924 49.8443 16.8243 48.7505 16.3116L42.9545 13.5959C42.714 13.4834 42.4679 13.3831 42.2172 13.2955C39.4749 12.3464 36.5731 11.9408 33.675 12.1016L24.6137 3.06841L24.5284 2.98832L24.3755 2.84314L24.2426 2.72551L24.1021 2.60286L23.9466 2.47771L23.8187 2.3801C23.761 2.33504 23.7008 2.2925 23.6431 2.25245C23.5854 2.2124 23.5629 2.19488 23.5227 2.16985L23.3346 2.0447L23.2168 1.97211L23.0211 1.85447L22.8983 1.7869L22.7026 1.68427C22.6575 1.65924 22.6124 1.63922 22.5672 1.61669L22.3766 1.52909C22.3265 1.50406 22.2763 1.48404 22.2236 1.46151L22.0456 1.38892C21.9904 1.3664 21.9327 1.34387 21.8725 1.32385L21.7095 1.26628L21.5189 1.20371L21.3609 1.15865L21.1628 1.10358L21.0073 1.06604L20.8066 1.02349L20.6411 0.990951L20.4505 0.958412L20.2674 0.933384L20.0893 0.910859L19.8837 0.893336H19.7232H19.495H19.3921L8.43226 0.750669C7.43916 0.737439 6.45326 0.920568 5.53143 1.28949C4.60961 1.65842 3.77008 2.20584 3.0613 2.90018C2.35251 3.59452 1.78852 4.42204 1.40178 5.33501C1.01505 6.24798 0.813245 7.22833 0.808037 8.21952L0.752869 19.3577V19.3802C0.752869 19.4528 0.752869 19.5229 0.752869 19.5955C0.752869 19.6681 0.752869 19.7031 0.752869 19.7557C0.754105 19.764 0.754105 19.7724 0.752869 19.7807C0.770624 20.1218 0.811681 20.4614 0.875757 20.7969C0.875757 20.8094 0.875757 20.8219 0.875757 20.8345C0.895821 20.9321 0.918395 21.0322 0.940967 21.1298L0.955968 21.1924C0.976032 21.2825 1.00112 21.3726 1.02871 21.4602L1.0513 21.5478C1.07638 21.6279 1.10148 21.708 1.12907 21.7856L1.16666 21.9007C1.19174 21.9708 1.21683 22.0384 1.24442 22.1035C1.27201 22.1685 1.28204 22.2011 1.3021 22.2511C1.32216 22.3012 1.34976 22.3613 1.37484 22.4188C1.39992 22.4764 1.42496 22.534 1.45254 22.5915C1.48013 22.6491 1.49518 22.6817 1.51775 22.7267C1.54032 22.7718 1.583 22.8594 1.61811 22.9244L1.6783 23.0296C1.71843 23.1022 1.75855 23.1747 1.80119 23.2448L1.85384 23.3324C1.9015 23.4075 1.94666 23.4826 1.99682 23.5552C2.01377 23.582 2.03218 23.6079 2.05198 23.6328C2.10214 23.7079 2.15227 23.783 2.20745 23.8555L2.27266 23.9381L2.43571 24.1484C2.51346 24.241 2.59119 24.3311 2.67145 24.4212L2.72661 24.4788C2.79433 24.5514 2.85955 24.624 2.92978 24.694V24.7066L12.0739 33.7873C11.932 36.6376 12.3407 39.4885 13.2777 42.1848C13.3631 42.4347 13.4627 42.6796 13.5761 42.9181L16.2998 48.705C16.7845 49.7348 17.4974 50.6413 18.3846 51.3559C19.2718 52.0705 20.3101 52.5745 21.4211 52.8299L22.7955 56.279C23.2122 57.3261 23.8597 58.2663 24.69 59.0297C25.5204 59.7932 26.5122 60.3603 27.5921 60.6892C28.6719 61.0181 29.812 61.1002 30.928 60.9295C32.044 60.7587 33.1072 60.3396 34.0387 59.703C35.1387 60.7386 36.5258 61.4194 38.0191 61.6566C39.5125 61.8939 41.0428 61.6765 42.4105 61.0329C43.7783 60.3893 44.92 59.3493 45.6867 58.0486C46.4535 56.7479 46.8098 55.2467 46.709 53.741L46.5711 51.691L51.6322 52.7823C53.0596 53.0917 54.5463 52.9797 55.911 52.46C57.2757 51.9404 58.4594 51.0355 59.3175 49.8559C60.1756 48.6762 60.6712 47.2728 60.7436 45.8168C60.816 44.3608 60.4622 42.9153 59.7254 41.6566V41.6566Z" stroke="black" stroke-width="1.5" stroke-miterlimit="10"/>
<path d="M19.2822 8.37562L8.26581 19.37L28.7824 39.8455L39.7987 28.8512L19.2822 8.37562Z" stroke="black" stroke-width="1.5" stroke-linecap="round" stroke-linejoin="round"/>
<path d="M19.4348 23.6978C21.7438 23.6978 23.6156 21.8297 23.6156 19.5254C23.6156 17.221 21.7438 15.3529 19.4348 15.3529C17.1258 15.3529 15.254 17.221 15.254 19.5254C15.254 21.8297 17.1258 23.6978 19.4348 23.6978Z" fill="black" stroke="black" stroke-width="1.5" stroke-linecap="round" stroke-linejoin="round"/>
<path d="M28.7821 39.842L23.109 45.5137L20.3853 39.7268C19.4622 37.0638 19.3196 34.1932 19.9741 31.452V31.452" stroke="black" stroke-width="1.5" stroke-linecap="round" stroke-linejoin="round"/>
<path d="M39.8623 28.7863L45.5403 23.1221L39.7444 20.4039C37.0751 19.4831 34.1983 19.3398 31.4505 19.9909V19.9909" stroke="black" stroke-width="1.5" stroke-linecap="round" stroke-linejoin="round"/>
<path d="M35.1473 33.3518L33.2788 35.2165L25.3336 27.2871C25.2106 27.1648 25.1131 27.0195 25.0465 26.8595C24.98 26.6995 24.9457 26.528 24.9457 26.3548C24.9457 26.1815 24.98 26.01 25.0465 25.85C25.1131 25.69 25.2106 25.5447 25.3336 25.4224V25.4224C25.4561 25.2997 25.6017 25.2024 25.762 25.136C25.9223 25.0696 26.0942 25.0354 26.2678 25.0354C26.4413 25.0354 26.6132 25.0696 26.7735 25.136C26.9338 25.2024 27.0795 25.2997 27.202 25.4224L35.1473 33.3518Z" stroke="black" stroke-width="1.5" stroke-linecap="round" stroke-linejoin="round"/>
<path d="M8.26422 19.3701L8.3219 8.23193L19.2793 8.37711" stroke="black" stroke-width="1.5" stroke-linecap="round" stroke-linejoin="round"/>
<path d="M25.6445 43.1107L29.7826 53.5056L32.2505 45.1732L39.1976 54.2389L38.395 42.2447L53.2172 45.4435L46.2726 33.582L52.4146 29.8525L43.0022 25.7877" stroke="black" stroke-width="1.5" stroke-linecap="round" stroke-linejoin="round"/>
</svg>
