<svg width="59" height="60" viewBox="0 0 59 60" fill="none" xmlns="http://www.w3.org/2000/svg">
<path d="M54.0722 4.53306C51.204 1.6097 47.0717 0.28428 42.7365 0.896204C39.1152 1.40903 35.5893 3.23737 32.8043 6.04182C31.4392 7.41254 30.2912 8.98857 29.4007 10.7142L28.2392 10.635C26.6542 10.5294 25.0651 10.7679 23.5783 11.3344C22.0916 11.9009 20.7413 12.7824 19.6176 13.92L2.89768 30.8631C1.5225 32.2569 0.75 34.147 0.75 36.1177C0.75 38.0885 1.5225 39.9786 2.89768 41.3723L17.8987 56.5738C19.2743 57.9671 21.1397 58.7499 23.0848 58.7499C25.0299 58.7499 26.8954 57.9671 28.271 56.5738L45.1694 39.4523C46.235 38.3726 47.0615 37.0754 47.594 35.647C48.1265 34.2186 48.3527 32.6917 48.2576 31.1678L48.1427 29.3271C49.7272 28.4586 51.1792 27.3621 52.4535 26.0718C55.2385 23.2673 57.065 19.7023 57.5883 16.0382C58.2289 11.6507 56.9477 7.45642 54.0722 4.53306Z" stroke="black" stroke-width="1.5" stroke-miterlimit="10"/>
<path d="M37.7313 23.3193C37.237 23.0693 36.7862 22.7397 36.3962 22.3432C33.8239 19.7221 34.5355 14.7846 37.9807 11.3137C41.4259 7.84287 46.2942 7.15167 48.8763 9.77278C51.4583 12.3939 50.737 17.3289 47.2894 20.8023C45.4188 22.6851 43.1326 23.7504 41.0078 23.9114" stroke="black" stroke-width="1.5" stroke-linecap="round" stroke-linejoin="round"/>
<path d="M23.0922 51.3166L8.10339 36.1102L24.8257 19.1671C25.2098 18.7777 25.6716 18.476 26.1802 18.2825C26.6889 18.0889 27.2325 18.0079 27.7746 18.0448L38.2398 18.7459C38.7711 18.7832 39.271 19.0143 39.6469 19.3965C40.0228 19.7787 40.2492 20.2861 40.284 20.8245L40.9564 31.6285C40.9856 32.0998 40.9154 32.572 40.7506 33.0137C40.5858 33.4553 40.33 33.8564 40.0003 34.1902L23.0922 51.3166Z" stroke="black" stroke-width="1.5" stroke-linecap="round" stroke-linejoin="round"/>
<path d="M21.0334 43.6243C21.1529 43.6197 21.2722 43.6081 21.3904 43.5896C21.7316 43.5275 22.0362 43.3351 22.2413 43.052C22.3249 42.9553 22.3784 42.8359 22.3954 42.7085C22.4124 42.5812 22.3919 42.4516 22.3367 42.336C22.2245 42.1101 22.0559 41.9179 21.8476 41.7786C21.2746 41.3878 20.6776 41.0345 20.0602 40.7207C19.1824 40.25 18.2924 39.7942 17.4122 39.3259C16.9157 39.0631 16.4363 38.7685 15.9768 38.444C15.6814 38.2484 15.4399 37.9798 15.2751 37.6636C15.1795 37.4639 15.1349 37.2431 15.1456 37.0215C15.1563 36.7998 15.2219 36.5844 15.3362 36.3952C15.4169 36.2465 15.4218 36.2911 15.3362 36.192C15.0379 35.8724 14.7322 35.5553 14.4315 35.2382L14.3752 35.1787L15.2457 34.329L15.2995 34.386C15.6149 34.708 15.9279 35.0276 16.2409 35.3522C16.2727 35.3819 16.2947 35.3769 16.3363 35.3522C16.5793 35.168 16.8615 35.0441 17.1603 34.9904C17.2337 35.3224 17.307 35.6594 17.3754 35.9814C17.2336 36.0359 17.0918 36.0756 16.9598 36.1375C16.7714 36.2304 16.6123 36.3745 16.5001 36.5537C16.4412 36.6381 16.4076 36.7379 16.4033 36.8411C16.399 36.9444 16.4241 37.0467 16.4756 37.1359C16.5937 37.3291 16.7576 37.4892 16.9524 37.6017C17.7283 38.0922 18.529 38.5412 19.3511 38.9469C20.2069 39.3953 21.0627 39.8363 21.9112 40.2996C22.2732 40.5016 22.6213 40.7284 22.9528 40.9784C23.3021 41.2238 23.5603 41.5804 23.6864 41.9916C23.7401 42.1861 23.7542 42.3897 23.7277 42.5899C23.7012 42.7901 23.6348 42.9827 23.5324 43.156C23.4957 43.2279 23.4956 43.27 23.547 43.3195C23.8722 43.6441 24.1925 43.9761 24.5251 44.3105L24.6156 44.4071L23.7353 45.2643L22.6692 44.142C22.5201 44.2238 22.3831 44.308 22.2364 44.3898C21.9941 44.5105 21.7353 44.594 21.4686 44.6375C21.4598 44.6401 21.4505 44.6401 21.4418 44.6375C21.4324 44.6337 21.4246 44.6267 21.4197 44.6177C21.2657 44.2857 21.1532 43.9562 21.0334 43.6243Z" fill="black" stroke="black" stroke-width="1.5" stroke-miterlimit="10"/>
<path d="M26.4421 38.1369C26.5692 38.1369 26.6866 38.1369 26.799 38.1022C27.1391 38.0375 27.4424 37.8445 27.6475 37.5621C27.7315 37.4663 27.7857 37.3473 27.8031 37.2204C27.8205 37.0934 27.8004 36.964 27.7453 36.8486C27.634 36.6215 27.4652 36.4283 27.2563 36.2887C26.6822 35.8998 26.0853 35.5465 25.4689 35.2309C24.5887 34.7601 23.701 34.3043 22.8208 33.8361C22.3238 33.5742 21.8444 33.2796 21.3855 32.9541C21.0894 32.7585 20.8471 32.49 20.6813 32.1737C20.586 31.9739 20.5419 31.7529 20.553 31.5313C20.5641 31.3096 20.6301 31.0943 20.7449 30.9053C20.8256 30.7566 20.8304 30.8012 20.7449 30.7021L19.8402 29.7483L19.7839 29.6889L20.6544 28.8391C20.6711 28.8593 20.689 28.8783 20.7082 28.8961L21.6496 29.8623C21.6813 29.8945 21.7034 29.8871 21.7449 29.8623C21.9882 29.6786 22.2703 29.5548 22.5689 29.5006C22.6423 29.835 22.7132 30.1695 22.7841 30.4915C22.6423 30.5461 22.5005 30.5857 22.366 30.6501C22.1781 30.7415 22.0195 30.8849 21.9088 31.0638C21.8493 31.148 21.8153 31.2478 21.811 31.3512C21.8066 31.4546 21.8322 31.5571 21.8843 31.646C22.0015 31.8391 22.1646 31.9992 22.3587 32.1118C23.1351 32.6027 23.9366 33.0518 24.7598 33.457C25.6156 33.9054 26.4714 34.3464 27.3199 34.8097C27.6816 35.0132 28.0296 35.2408 28.3615 35.491C28.7111 35.7349 28.9695 36.0909 29.0951 36.5018C29.1488 36.6963 29.1629 36.8998 29.1364 37.1C29.1099 37.3002 29.0434 37.4929 28.941 37.6662C28.9043 37.738 28.9043 37.7801 28.9557 37.8297C29.2809 38.1567 29.6012 38.4862 29.9337 38.8206L30.0242 38.9148L29.144 39.772L28.0779 38.6497C27.9287 38.7315 27.7893 38.8182 27.6451 38.8974C27.4022 39.017 27.1437 39.1004 26.8773 39.1452H26.8479C26.8403 39.1408 26.8337 39.1349 26.8284 39.1278C26.6866 38.7884 26.5692 38.4664 26.4421 38.1369Z" fill="black" stroke="black" stroke-width="1.5" stroke-miterlimit="10"/>
<path d="M31.9216 32.5949C32.0487 32.5949 32.1662 32.5949 32.2786 32.5602C32.6187 32.4955 32.9219 32.3025 33.1271 32.0201C33.2111 31.9243 33.2652 31.8054 33.2826 31.6784C33.3 31.5514 33.2799 31.422 33.2249 31.3066C33.114 31.0792 32.9451 30.8859 32.7358 30.7467C32.1626 30.3578 31.5665 30.0045 30.9509 29.6889C30.0706 29.2182 29.1831 28.7648 28.3028 28.2941C27.8059 28.0322 27.3264 27.7376 26.8675 27.4121C26.5714 27.2165 26.3292 26.948 26.1633 26.6317C26.068 26.4323 26.0239 26.2118 26.035 25.9905C26.0461 25.7692 26.1121 25.5544 26.2269 25.3658C26.3076 25.2146 26.3125 25.2592 26.2146 25.1601L25.31 24.2063L25.2537 24.1469L26.1241 23.2971C26.1408 23.3173 26.1588 23.3363 26.1779 23.3541L27.1193 24.3203C27.1487 24.3525 27.1731 24.3451 27.2122 24.3203C27.4564 24.1366 27.7394 24.0128 28.0387 23.9586C28.1121 24.293 28.183 24.6275 28.2539 24.9496C28.112 25.0041 27.9702 25.0437 27.8358 25.1081C27.6478 25.1995 27.4893 25.3429 27.3785 25.5218C27.3191 25.606 27.2851 25.7059 27.2808 25.8092C27.2764 25.9126 27.3019 26.0151 27.3541 26.104C27.4712 26.2971 27.6343 26.4572 27.8284 26.5698C28.6048 27.0607 29.4064 27.5098 30.2296 27.915C31.0854 28.3634 31.9412 28.8044 32.7896 29.2677C33.1514 29.4712 33.4993 29.6988 33.8313 29.949C34.1805 30.1933 34.4387 30.5492 34.5648 30.9598C34.6186 31.1543 34.6326 31.3579 34.6061 31.558C34.5796 31.7582 34.5132 31.9509 34.4108 32.1242C34.3741 32.1985 34.3741 32.2381 34.4254 32.2877C34.7506 32.6147 35.0685 32.9442 35.4035 33.2786L35.4915 33.3728L34.6113 34.2325L33.5476 33.1077C33.3985 33.1895 33.2591 33.2762 33.1149 33.3554C32.872 33.475 32.6134 33.5584 32.347 33.6032C32.3374 33.6056 32.3274 33.6056 32.3177 33.6032C32.3101 33.5988 32.3035 33.5929 32.2981 33.5858C32.1539 33.2464 32.039 32.9244 31.9216 32.5949Z" fill="black" stroke="black" stroke-width="1.5" stroke-miterlimit="10"/>
<path d="M36.5748 24.288C37.5727 24.288 38.3818 23.4683 38.3818 22.4572C38.3818 21.446 37.5727 20.6263 36.5748 20.6263C35.5768 20.6263 34.7678 21.446 34.7678 22.4572C34.7678 23.4683 35.5768 24.288 36.5748 24.288Z" stroke="black" stroke-width="1.5" stroke-linecap="round" stroke-linejoin="round"/>
</svg>
