<svg width="345" height="317" viewBox="0 0 345 317" fill="none" xmlns="http://www.w3.org/2000/svg">
<path d="M340.371 314.334C210.172 306.82 113.049 303.442 9.46288 306.446L7.69921 306.497L7.8203 304.738C11.7042 248.05 19.4663 180.121 25.6143 123.085C16.2527 80.0266 10.1006 52.2294 2.33691 10.9556L1.95508 8.92146L4.01953 9.06404C85.5418 14.6925 220.853 12.0674 334.166 1.92831L336.035 1.76035L335.904 3.63339C331.372 68.2235 324.576 131.309 317.781 194.733C323.921 237.412 331.351 272.992 342.007 312.319L342.588 314.462L340.371 314.334Z" fill="black" stroke="black" stroke-width="3.19922"/>
<path d="M215.278 38.5462C220.617 38.5463 224.586 40.1669 227.594 43.3392C230.659 46.571 232.874 51.5678 234.318 58.5931C235.131 62.8679 235.505 68.0703 235.564 73.638H220.967C221.071 68.6472 220.888 64.2131 220.548 60.9095L220.547 60.8958L220.545 60.8812C220.084 57.0583 219.562 54.2841 218.868 52.4359C218.204 50.6693 217.096 49.0443 215.093 49.0443C213.863 49.0443 212.947 49.8282 212.337 50.5853C211.699 51.3786 211.139 52.4538 210.638 53.6898C209.63 56.1782 208.721 59.6804 207.954 63.8792C206.415 72.3005 205.398 83.8015 205.398 96.2523C205.398 113.655 206.457 125.525 207.958 133.084C208.707 136.852 209.581 139.638 210.54 141.522C211.018 142.462 211.556 143.256 212.174 143.833C212.799 144.417 213.599 144.861 214.542 144.861C215.561 144.861 216.381 144.322 216.98 143.655C217.572 142.996 218.066 142.094 218.495 141.016C219.356 138.852 220.101 135.593 220.682 131.05C221.819 122.163 222.366 108.01 221.709 86.6439H236.544C237.355 112.157 235.895 129.242 232.123 139.947C230.209 145.377 227.742 149.044 224.79 151.359C221.859 153.657 218.306 154.737 213.99 154.737C206.43 154.737 200.478 149.841 196.332 139.865C192.173 129.858 190.014 115.084 190.014 96.2523C190.014 77.5808 192.264 63.0158 196.616 53.179C200.941 43.4036 207.195 38.5462 215.278 38.5462ZM55.9165 39.2064C68.6669 39.5717 78.8622 41.6207 85.9009 45.5784C93.115 49.635 97.0454 55.6987 97.0454 64.3421C97.0454 73.5903 91.2336 78.8726 84.4761 81.3646L83.4302 81.7503V84.3528L84.356 84.7835C92.9031 88.7537 98.3334 99.3075 98.3335 115.865C98.3335 128.727 94.1919 137.999 86.7896 144.152C79.6251 150.106 69.1939 153.312 55.9155 153.759C56.263 115.303 56.2633 75.0283 55.9165 39.2064ZM289.023 45.2835C283.872 52.171 277.745 61.1656 272.417 69.89L272.071 70.4564L272.227 71.1009C277.773 93.9547 286.636 129.792 293.22 153.252L278.908 153.756C276.397 142.814 269.403 112.67 263.929 90.1155L262.526 84.3343L260.84 90.0394C260.783 90.2331 260.691 90.448 260.544 90.7786C260.415 91.0705 260.231 91.4787 260.104 91.9075L260.041 92.1234L260.039 92.348C259.861 115.144 260.027 138.803 260.204 153.18H245.768C245.944 125.807 246.109 64.2159 245.779 39.6351H260.188C260.042 46.6455 260.039 56.711 260.039 68.0775L263.124 68.6712C267.163 58.567 271.31 47.4943 275.774 38.4827L289.023 45.2835ZM173.168 39.6351C175.305 63.4602 181.874 122.687 185.7 153.18H171.385C170.966 142.944 169.899 124.349 168.5 104.08L168.397 102.591H157.145L157.03 104.066C155.611 122.218 154.535 139.934 153.799 153.18H139.645C143.602 121.741 148.385 77.5193 151.983 39.6351H173.168ZM120.639 39.6351C120.139 60.161 120.319 105.673 120.498 141.556L120.505 143.148H122.097C125.717 143.148 129.765 143.024 134.113 142.779V153.152C126.147 153.015 116.346 152.9 105.892 153.139C106.551 126.97 106.224 61.8131 105.874 39.6351H120.639ZM70.3667 90.6292C70.1826 106.05 70.3657 122.118 70.3657 137.657V140.376L72.7427 139.055C76.1822 137.143 79.2688 134.414 81.4819 130.438C83.6897 126.471 84.9731 121.364 84.9731 114.775C84.9731 106.547 83.7155 100.569 81.4956 96.4124C79.2413 92.1912 76.0116 89.8915 72.3062 89.0853L70.3901 88.6683L70.3667 90.6292ZM160.897 50.9525C159.791 62.0238 158.685 75.7382 157.582 89.9017L157.447 91.6253H167.69L167.581 89.9232C166.66 75.589 165.555 61.5676 164.634 50.973L164.507 49.511H161.041L160.897 50.9525ZM70.3657 79.4661L72.2329 79.1497C75.2753 78.6349 78.1573 77.288 80.2837 74.9271C82.424 72.5505 83.685 69.2723 83.6851 65.1204C83.6851 61.8719 82.8193 59.0445 80.8394 56.8343C78.8778 54.6448 75.9847 53.2426 72.2798 52.5003L70.3657 52.1165V79.4661Z" fill="#F4F4F0" stroke="black" stroke-width="3.19922"/>
<path d="M93.8616 166.41C105.195 166.812 113.758 169.105 119.522 173.227C125.465 177.477 128.62 183.807 128.62 192.628C128.62 201.381 124.572 207.141 119.345 210.772L118.478 211.373L118.691 212.407C122.886 232.787 129.681 264.131 133.521 280.494L121.602 281.224C119.156 266.283 114.032 240.409 109.058 217.044L108.686 215.294L106.988 215.861L106.521 216.016L105.434 216.378L105.427 217.524C105.277 242.248 105.417 266.249 105.567 280.376H93.8733C94.4505 254.621 94.4478 208.065 93.8616 166.41ZM167.603 166.458C177.917 167.182 186.567 170.67 192.783 178.702C199.394 187.244 203.461 201.181 203.461 223.137C203.461 242.177 199.641 256.49 193.077 266.091C186.88 275.157 178.175 280.118 167.603 280.906C167.896 243.628 167.895 201.555 167.603 166.458ZM266.512 166.266C268.231 175.218 270.891 188.135 272.945 198.844L273.194 200.143H276.464L276.71 198.84C278.782 187.89 281.551 175.271 283.43 166.267L293.962 166.736C288.646 182.667 284.163 197.641 279.826 212.893L279.765 213.108V213.33C279.765 230.212 279.908 268.148 280.191 280.376H268.236C268.629 267.541 268.481 226.849 268.332 211.136L268.33 210.925L268.274 210.721C264.69 197.879 259.82 181.759 255.175 166.742L266.512 166.266ZM238.493 166.832C240.303 190.676 245.859 249.903 249.094 280.376H237.472C237.117 270.141 236.217 251.554 235.033 231.293L234.946 229.787H224.935L224.836 231.281C223.637 249.425 222.727 267.132 222.105 280.376H210.621C213.969 248.945 218.015 204.721 221.059 166.832H238.493ZM154 166.832C153.713 193.328 153.713 250.989 154.002 280.376H142.281C142.43 251.003 142.57 193.333 142.288 166.832H154ZM81.5168 166.832V177.732C78.643 177.619 76.3406 177.555 74.4016 177.506C72.0942 177.447 70.3278 177.409 68.7161 177.332L67.0403 177.252V178.93C67.0403 182.422 67.0021 186.033 66.9631 189.751C66.9242 193.467 66.885 197.289 66.885 201.19V202.834L68.5286 202.788C72.9266 202.666 77.9894 202.637 80.8938 202.549V213.827C77.9021 213.703 72.898 213.599 68.3284 213.599H66.7405L66.7288 215.187C66.577 236.439 66.575 259.323 66.8635 280.376H55.1575C55.447 252.867 55.4452 204.049 55.1526 166.832H81.5168ZM179.179 182.032C179.023 205.544 179.023 235.437 179.179 263.15L179.202 267.298L181.97 264.208C189.074 256.278 192.652 241.755 192.652 223.137C192.652 212.388 191.671 203.488 189.857 196.469C188.048 189.471 185.374 184.207 181.881 180.884L179.203 178.337L179.179 182.032ZM228.107 178.173C227.171 189.241 226.237 202.953 225.303 217.116L225.191 218.821H234.348L234.256 217.135C233.477 202.803 232.542 188.784 231.763 178.191L231.655 176.708H228.231L228.107 178.173ZM105.427 206.275L107.573 205.494C113.216 203.443 117.188 198.718 117.188 192.783C117.188 189.418 116.575 186.611 114.925 184.396C113.27 182.174 110.752 180.786 107.451 179.878L105.427 179.321V206.275Z" fill="#F4F4F0" stroke="black" stroke-width="3.19922"/>
</svg>
