<svg width="224" height="227" viewBox="0 0 224 227" fill="none" xmlns="http://www.w3.org/2000/svg">
<path d="M2.6416 130.099L41.1107 111.796L5.3108 83.4489L40.4842 83.116L25.8273 28.8919L53.2721 62.3915L52.9299 35.3538L71.509 55.0306L70.593 14.4983L84.1179 48.9944L94.5104 19.0569L107.298 52.9689L121.618 3.98343L134.743 53.8071L163.969 18.5963L160.179 59.458H192.697L173.96 90.477L219.642 92.1533L178.483 117.815L218.11 139.03L179.893 143.647L200.551 180.598L170.272 171.36L182.418 206.6L152.648 182.128L153.175 222.948L130.5 188.617L123.856 212.275L110.739 180.598L95.9003 217.804L85.592 186.072L60.132 208.51L68.656 169.82L26.538 181.716L41.7979 146.042L2.6416 130.099Z" fill="#FFC900" stroke="black" stroke-width="2.13281" stroke-miterlimit="10"/>
<path d="M74.6829 142.701C76.3618 131.108 72.681 85.3472 73.8288 77.4212C74.1371 75.2918 75.2081 74.1765 76.679 74.4865C77.8558 74.7345 79.2239 75.7543 80.0675 76.9073L84.9681 68.1874C83.1954 66.4728 80.621 64.7111 77.2869 64.0085C71.1091 62.7064 66.1729 66.7863 65.0251 74.7124C63.5861 84.6495 67.1612 129.047 65.6022 139.812C65.2082 142.533 63.5146 143.761 61.7495 143.389C60.5728 143.141 53.4563 137.776 52.289 136.067L48.3128 146.079C50.5759 147.897 59.0309 153.788 61.8747 154.387C68.1506 155.71 73.3295 152.047 74.6829 142.701Z" fill="#FF90E8" stroke="black" stroke-width="2.13281" stroke-miterlimit="10"/>
<path d="M98.8168 166.765L108.114 167.313C107.23 139.076 105.924 80.7597 105.733 59.3221L93.0456 58.5736C89.6427 94.3231 85.298 136.488 81.9652 165.771L91.1658 166.313C92.0575 153.999 93.3305 137.106 94.8148 119.793C96.1706 119.873 97.8171 119.97 99.1729 120.05C99.1444 139.749 98.9925 157.716 98.8168 166.765ZM95.6389 106.756C96.7536 93.7359 97.8507 81.1462 98.8481 70.9952L99.1387 71.0123C99.2242 80.7958 99.2775 93.741 99.2223 106.967C98.0601 106.899 96.8011 106.825 95.6389 106.756Z" fill="#FF90E8" stroke="black" stroke-width="2.13281" stroke-miterlimit="10"/>
<path d="M136.034 161.96C133.301 162.394 130.765 162.672 128.529 162.789C127.191 128.563 125.514 84.9475 125.161 66.7322L115.201 67.2558C116.103 86.5998 118.664 151.875 119.113 175.585C125.608 174.954 131.711 174.778 136.493 174.671L136.034 161.96Z" fill="#FF90E8" stroke="black" stroke-width="2.13281" stroke-miterlimit="10"/>
<path d="M164.738 147.806C161.159 147.762 148.878 146.525 146.094 146.218C146.999 133.004 148.087 118.643 149.209 105.104C152.569 105.474 156.305 106.003 157.64 106.267L158.465 95.3802C157.208 95.3584 153.464 94.9456 150.095 94.6909C150.49 89.4793 150.954 84.6256 151.314 79.8773C153.321 80.2154 155.817 80.4906 160.216 81.2092L161.014 70.6701L142.774 68.6588C140.816 97.0545 137.938 135.042 136.193 155.52L163.922 158.577L164.738 147.806Z" fill="#FF90E8" stroke="black" stroke-width="2.13281" stroke-miterlimit="10"/>
</svg>
